<svg xmlns="http://www.w3.org/2000/svg" viewBox="0 0 448 512"><rect width="448" height="512" rx="100" fill="#fff"/><path d="M224 128A96 96 0 1 0 320 224A96 96 0 1 0 224 128zm0 160a64 64 0 1 1 64-64A64 64 0 0 1 224 288zm124.71-136a24 24 0 1 0 24 24A24 24 0 0 0 348.71 152zM398.8 80A64 64 0 0 0 368 51.2C347.2 32 320.8 32 224 32S100.8 32 80 51.2A64 64 0 0 0 51.2 80C32 100.8 32 127.2 32 224s0 123.2 19.2 144A64 64 0 0 0 80 460.8C100.8 480 127.2 480 224 480s123.2 0 144-19.2A64 64 0 0 0 460.8 432C480 411.2 480 384.8 480 288s0-123.2-19.2-144A64 64 0 0 0 398.8 80zM224 400a176 176 0 1 1 176-176A176 176 0 0 1 224 400z" fill="#E4405F"/></svg>